<svg width="350" height="169" viewBox="0 0 350 169" fill="none" xmlns="http://www.w3.org/2000/svg">
<g filter="url(#filter0_d_1_254)">
<path d="M25 59.1608C25 42.5034 39.1463 29 56.5967 29H238.278C255.728 29 269.875 42.5034 269.875 59.1608C269.875 67.1926 275.305 92.6203 271.849 95.4479C268.394 98.2755 247.314 89.3215 238.278 89.3215H56.5967C39.1463 89.3215 25 75.8181 25 59.1608Z" fill="#FBFBFB"/>
</g>
<path d="M53.4347 66V51.4545H56.0696V57.6122H62.8097V51.4545H65.4517V66H62.8097V59.821H56.0696V66H53.4347ZM72.9624 66.2131C71.897 66.2131 70.9737 65.9787 70.1925 65.5099C69.4112 65.0412 68.8052 64.3854 68.3743 63.5426C67.9482 62.6998 67.7351 61.715 67.7351 60.5881C67.7351 59.4612 67.9482 58.474 68.3743 57.6264C68.8052 56.7789 69.4112 56.1207 70.1925 55.652C70.9737 55.1832 71.897 54.9489 72.9624 54.9489C74.0277 54.9489 74.951 55.1832 75.7322 55.652C76.5135 56.1207 77.1172 56.7789 77.5433 57.6264C77.9742 58.474 78.1896 59.4612 78.1896 60.5881C78.1896 61.715 77.9742 62.6998 77.5433 63.5426C77.1172 64.3854 76.5135 65.0412 75.7322 65.5099C74.951 65.9787 74.0277 66.2131 72.9624 66.2131ZM72.9766 64.1534C73.5542 64.1534 74.0372 63.9948 74.4254 63.6776C74.8137 63.3556 75.1025 62.9247 75.2919 62.3849C75.486 61.8452 75.5831 61.2438 75.5831 60.581C75.5831 59.9134 75.486 59.3097 75.2919 58.7699C75.1025 58.2254 74.8137 57.7921 74.4254 57.4702C74.0372 57.1482 73.5542 56.9872 72.9766 56.9872C72.3847 56.9872 71.8923 57.1482 71.4993 57.4702C71.111 57.7921 70.8198 58.2254 70.6257 58.7699C70.4363 59.3097 70.3416 59.9134 70.3416 60.581C70.3416 61.2438 70.4363 61.8452 70.6257 62.3849C70.8198 62.9247 71.111 63.3556 71.4993 63.6776C71.8923 63.9948 72.3847 64.1534 72.9766 64.1534ZM85.8192 55.0909V57.0795H79.5479V55.0909H85.8192ZM81.0962 52.4773H83.6673V62.7188C83.6673 63.0644 83.7193 63.3295 83.8235 63.5142C83.9324 63.6941 84.0745 63.8172 84.2496 63.8835C84.4248 63.9498 84.619 63.983 84.832 63.983C84.993 63.983 85.1398 63.9711 85.2724 63.9474C85.4097 63.9238 85.5138 63.9025 85.5849 63.8835L86.0181 65.8935C85.8808 65.9408 85.6843 65.9929 85.4286 66.0497C85.1777 66.1065 84.8699 66.1397 84.5053 66.1491C83.8614 66.1681 83.2814 66.071 82.7653 65.858C82.2492 65.6402 81.8396 65.304 81.5366 64.8494C81.2383 64.3949 81.0915 63.8267 81.0962 63.1449V52.4773ZM101.553 57.9744L99.2088 58.2301C99.1425 57.9934 99.0265 57.7708 98.8608 57.5625C98.6998 57.3542 98.482 57.1861 98.2074 57.0582C97.9328 56.9304 97.5966 56.8665 97.1989 56.8665C96.6638 56.8665 96.214 56.9825 95.8494 57.2145C95.4896 57.4465 95.312 57.7472 95.3168 58.1165C95.312 58.4337 95.428 58.6918 95.6648 58.8906C95.9063 59.0895 96.304 59.2528 96.858 59.3807L98.7188 59.7784C99.7509 60.0009 100.518 60.3537 101.02 60.8366C101.527 61.3196 101.782 61.9517 101.787 62.733C101.782 63.4195 101.581 64.0256 101.183 64.5511C100.79 65.072 100.243 65.4792 99.5426 65.7727C98.8419 66.0663 98.0369 66.2131 97.1278 66.2131C95.7926 66.2131 94.7178 65.9337 93.9034 65.375C93.089 64.8116 92.6037 64.0279 92.4474 63.0241L94.9545 62.7827C95.0682 63.2751 95.3097 63.6468 95.679 63.8977C96.0483 64.1487 96.5289 64.2741 97.1207 64.2741C97.7315 64.2741 98.2216 64.1487 98.5909 63.8977C98.965 63.6468 99.152 63.3366 99.152 62.9673C99.152 62.6548 99.0313 62.3968 98.7898 62.1932C98.553 61.9896 98.1837 61.8333 97.6818 61.7244L95.821 61.3338C94.7746 61.116 94.0005 60.7491 93.4986 60.233C92.9967 59.7121 92.7481 59.054 92.7528 58.2585C92.7481 57.5862 92.9304 57.0038 93.2997 56.5114C93.6738 56.0142 94.1922 55.6307 94.8551 55.3608C95.5227 55.0862 96.2921 54.9489 97.1634 54.9489C98.4418 54.9489 99.4479 55.2211 100.182 55.7656C100.92 56.3101 101.377 57.0464 101.553 57.9744ZM103.907 70.0909V55.0909H106.435V56.8949H106.585C106.717 56.6297 106.904 56.348 107.146 56.0497C107.387 55.7467 107.714 55.4886 108.126 55.2756C108.538 55.0578 109.063 54.9489 109.702 54.9489C110.545 54.9489 111.305 55.1643 111.982 55.5952C112.664 56.0213 113.204 56.6534 113.602 57.4915C114.004 58.3248 114.205 59.3475 114.205 60.5597C114.205 61.7576 114.009 62.7756 113.616 63.6136C113.223 64.4517 112.688 65.0909 112.011 65.5312C111.334 65.9716 110.567 66.1918 109.71 66.1918C109.085 66.1918 108.566 66.0876 108.154 65.8793C107.742 65.6709 107.411 65.42 107.16 65.1264C106.914 64.8281 106.722 64.5464 106.585 64.2812H106.478V70.0909H103.907ZM106.428 60.5455C106.428 61.2509 106.528 61.8688 106.727 62.3991C106.93 62.9295 107.221 63.3437 107.6 63.642C107.984 63.9356 108.448 64.0824 108.992 64.0824C109.56 64.0824 110.036 63.9309 110.42 63.6278C110.803 63.3201 111.092 62.901 111.286 62.3707C111.485 61.8357 111.585 61.2273 111.585 60.5455C111.585 59.8684 111.487 59.267 111.293 58.7415C111.099 58.2159 110.81 57.804 110.427 57.5057C110.043 57.2074 109.565 57.0582 108.992 57.0582C108.443 57.0582 107.977 57.2027 107.593 57.4915C107.21 57.7803 106.918 58.1851 106.719 58.706C106.525 59.2268 106.428 59.84 106.428 60.5455ZM116.407 66V55.0909H118.978V66H116.407ZM117.7 53.5426C117.292 53.5426 116.942 53.4077 116.648 53.1378C116.355 52.8632 116.208 52.5341 116.208 52.1506C116.208 51.7623 116.355 51.4332 116.648 51.1634C116.942 50.8887 117.292 50.7514 117.7 50.7514C118.112 50.7514 118.462 50.8887 118.751 51.1634C119.044 51.4332 119.191 51.7623 119.191 52.1506C119.191 52.5341 119.044 52.8632 118.751 53.1378C118.462 53.4077 118.112 53.5426 117.7 53.5426ZM126.38 66.2131C125.291 66.2131 124.356 65.974 123.575 65.4957C122.798 65.0175 122.199 64.357 121.778 63.5142C121.361 62.6667 121.153 61.6913 121.153 60.5881C121.153 59.4801 121.366 58.5024 121.792 57.6548C122.218 56.8026 122.82 56.1397 123.596 55.6662C124.377 55.188 125.301 54.9489 126.366 54.9489C127.252 54.9489 128.035 55.1122 128.717 55.4389C129.404 55.7609 129.95 56.2178 130.358 56.8097C130.765 57.3968 130.997 58.0833 131.054 58.8693H128.596C128.497 58.3437 128.26 57.9058 127.886 57.5554C127.517 57.2003 127.022 57.0227 126.402 57.0227C125.876 57.0227 125.414 57.1648 125.017 57.4489C124.619 57.7282 124.309 58.1307 124.086 58.6562C123.868 59.1818 123.76 59.8116 123.76 60.5455C123.76 61.2888 123.868 61.928 124.086 62.4631C124.304 62.9934 124.609 63.4029 125.002 63.6918C125.4 63.9759 125.867 64.1179 126.402 64.1179C126.78 64.1179 127.119 64.0469 127.417 63.9048C127.72 63.758 127.974 63.5473 128.177 63.2727C128.381 62.9981 128.52 62.6643 128.596 62.2713H131.054C130.992 63.0431 130.765 63.7273 130.372 64.3239C129.979 64.9157 129.444 65.3797 128.767 65.7159C128.09 66.0473 127.294 66.2131 126.38 66.2131ZM134.763 70.0909C134.412 70.0909 134.088 70.0625 133.79 70.0057C133.496 69.9536 133.262 69.892 133.087 69.821L133.683 67.8182C134.057 67.9271 134.391 67.9792 134.685 67.9744C134.978 67.9697 135.236 67.8774 135.459 67.6974C135.686 67.5223 135.878 67.2287 136.034 66.8168L136.254 66.2273L132.298 55.0909H135.026L137.54 63.3295H137.653L140.175 55.0909H142.909L138.541 67.321C138.338 67.8987 138.068 68.3935 137.732 68.8054C137.395 69.2221 136.983 69.5393 136.496 69.7571C136.013 69.9796 135.435 70.0909 134.763 70.0909ZM149.763 66V51.4545H159.081V53.6634H152.398V57.6122H158.442V59.821H152.398V66H149.763ZM165.326 66.2131C164.26 66.2131 163.337 65.9787 162.556 65.5099C161.775 65.0412 161.168 64.3854 160.738 63.5426C160.311 62.6998 160.098 61.715 160.098 60.5881C160.098 59.4612 160.311 58.474 160.738 57.6264C161.168 56.7789 161.775 56.1207 162.556 55.652C163.337 55.1832 164.26 54.9489 165.326 54.9489C166.391 54.9489 167.314 55.1832 168.096 55.652C168.877 56.1207 169.48 56.7789 169.907 57.6264C170.337 58.474 170.553 59.4612 170.553 60.5881C170.553 61.715 170.337 62.6998 169.907 63.5426C169.48 64.3854 168.877 65.0412 168.096 65.5099C167.314 65.9787 166.391 66.2131 165.326 66.2131ZM165.34 64.1534C165.917 64.1534 166.4 63.9948 166.789 63.6776C167.177 63.3556 167.466 62.9247 167.655 62.3849C167.849 61.8452 167.946 61.2438 167.946 60.581C167.946 59.9134 167.849 59.3097 167.655 58.7699C167.466 58.2254 167.177 57.7921 166.789 57.4702C166.4 57.1482 165.917 56.9872 165.34 56.9872C164.748 56.9872 164.256 57.1482 163.863 57.4702C163.474 57.7921 163.183 58.2254 162.989 58.7699C162.8 59.3097 162.705 59.9134 162.705 60.581C162.705 61.2438 162.8 61.8452 162.989 62.3849C163.183 62.9247 163.474 63.3556 163.863 63.6776C164.256 63.9948 164.748 64.1534 165.34 64.1534ZM177.494 66.2131C176.428 66.2131 175.505 65.9787 174.724 65.5099C173.942 65.0412 173.336 64.3854 172.906 63.5426C172.479 62.6998 172.266 61.715 172.266 60.5881C172.266 59.4612 172.479 58.474 172.906 57.6264C173.336 56.7789 173.942 56.1207 174.724 55.652C175.505 55.1832 176.428 54.9489 177.494 54.9489C178.559 54.9489 179.482 55.1832 180.263 55.652C181.045 56.1207 181.648 56.7789 182.075 57.6264C182.505 58.474 182.721 59.4612 182.721 60.5881C182.721 61.715 182.505 62.6998 182.075 63.5426C181.648 64.3854 181.045 65.0412 180.263 65.5099C179.482 65.9787 178.559 66.2131 177.494 66.2131ZM177.508 64.1534C178.085 64.1534 178.568 63.9948 178.957 63.6776C179.345 63.3556 179.634 62.9247 179.823 62.3849C180.017 61.8452 180.114 61.2438 180.114 60.581C180.114 59.9134 180.017 59.3097 179.823 58.7699C179.634 58.2254 179.345 57.7921 178.957 57.4702C178.568 57.1482 178.085 56.9872 177.508 56.9872C176.916 56.9872 176.424 57.1482 176.031 57.4702C175.642 57.7921 175.351 58.2254 175.157 58.7699C174.968 59.3097 174.873 59.9134 174.873 60.581C174.873 61.2438 174.968 61.8452 175.157 62.3849C175.351 62.9247 175.642 63.3556 176.031 63.6776C176.424 63.9948 176.916 64.1534 177.508 64.1534ZM188.951 66.1918C188.094 66.1918 187.327 65.9716 186.65 65.5312C185.973 65.0909 185.438 64.4517 185.045 63.6136C184.652 62.7756 184.456 61.7576 184.456 60.5597C184.456 59.3475 184.654 58.3248 185.052 57.4915C185.455 56.6534 185.997 56.0213 186.679 55.5952C187.36 55.1643 188.12 54.9489 188.958 54.9489C189.598 54.9489 190.123 55.0578 190.535 55.2756C190.947 55.4886 191.274 55.7467 191.515 56.0497C191.757 56.348 191.944 56.6297 192.076 56.8949H192.183V51.4545H194.761V66H192.233V64.2812H192.076C191.944 64.5464 191.752 64.8281 191.501 65.1264C191.25 65.42 190.919 65.6709 190.507 65.8793C190.095 66.0876 189.576 66.1918 188.951 66.1918ZM189.669 64.0824C190.213 64.0824 190.677 63.9356 191.061 63.642C191.444 63.3437 191.735 62.9295 191.934 62.3991C192.133 61.8688 192.233 61.2509 192.233 60.5455C192.233 59.84 192.133 59.2268 191.934 58.706C191.74 58.1851 191.451 57.7803 191.068 57.4915C190.689 57.2027 190.223 57.0582 189.669 57.0582C189.096 57.0582 188.618 57.2074 188.234 57.5057C187.85 57.804 187.562 58.2159 187.368 58.7415C187.173 59.267 187.076 59.8684 187.076 60.5455C187.076 61.2273 187.173 61.8357 187.368 62.3707C187.566 62.901 187.858 63.3201 188.241 63.6278C188.629 63.9309 189.105 64.0824 189.669 64.0824ZM201.141 67.4H221.141V47.4H201.141V67.4Z" fill="#FF6868"/>
<defs>
<filter id="filter0_d_1_254" x="0" y="0" width="350" height="169" filterUnits="userSpaceOnUse" color-interpolation-filters="sRGB">
<feFlood flood-opacity="0" result="BackgroundImageFix"/>
<feColorMatrix in="SourceAlpha" type="matrix" values="0 0 0 0 0 0 0 0 0 0 0 0 0 0 0 0 0 0 127 0" result="hardAlpha"/>
<feOffset dx="26" dy="22"/>
<feGaussianBlur stdDeviation="25.5"/>
<feComposite in2="hardAlpha" operator="out"/>
<feColorMatrix type="matrix" values="0 0 0 0 0 0 0 0 0 0 0 0 0 0 0 0 0 0 0.14 0"/>
<feBlend mode="normal" in2="BackgroundImageFix" result="effect1_dropShadow_1_254"/>
<feBlend mode="normal" in="SourceGraphic" in2="effect1_dropShadow_1_254" result="shape"/>
</filter>
</defs>
</svg>
