<svg width="64" height="64" viewBox="0 0 64 64" fill="none" xmlns="http://www.w3.org/2000/svg">
<path d="M34.6671 63.8788C33.9599 63.9103 33.2691 63.6595 32.7468 63.1817C32.2244 62.7039 31.9133 62.0381 31.8818 61.3308C31.8503 60.6236 32.1011 59.9328 32.579 59.4105C33.0568 58.8881 33.7226 58.577 34.4298 58.5455C39.4764 58.0838 44.2869 56.1936 48.2979 53.0964C52.3089 49.9992 55.3544 45.8232 57.0776 41.0576C58.8008 36.2919 59.1304 31.1339 58.0278 26.1877C56.9252 21.2414 54.436 16.7118 50.8518 13.1292C47.2676 9.54671 42.7369 7.05963 37.7901 5.95929C32.8434 4.85896 27.6855 5.19093 22.9207 6.91633C18.1558 8.64174 13.9813 11.6891 10.8859 15.7016C7.79057 19.714 5.90261 24.5254 5.44318 29.5722C5.37953 30.2766 5.03866 30.9269 4.49555 31.3799C3.95245 31.833 3.2516 32.0518 2.54719 31.9882C1.84277 31.9245 1.1925 31.5836 0.739408 31.0405C0.286321 30.4974 0.0675382 29.7966 0.13119 29.0922C0.874893 20.8877 4.75413 13.286 10.9614 7.86968C17.1686 2.45332 25.2257 -0.360454 33.4553 0.0140732C41.6849 0.3886 49.453 3.92257 55.1427 9.88035C60.8323 15.8381 64.005 23.7607 64.0004 31.9988C64.0413 39.9944 61.0709 47.7124 55.6802 53.6175C50.2894 59.5227 42.8733 63.1822 34.9072 63.8682C34.8271 63.8762 34.7445 63.8788 34.6671 63.8788Z" fill="#5FE26C"/>
</svg>
